<?xml version="1.0" encoding="UTF-8"?>
<svg width="22px" height="22px" viewBox="0 0 22 22" version="1.1" xmlns="http://www.w3.org/2000/svg" xmlns:xlink="http://www.w3.org/1999/xlink">
    <title>LogoMark</title>
    <g id="Page-1" stroke="none" stroke-width="1" fill="none" fill-rule="evenodd">
        <g id="LogoMark" fill-rule="nonzero">
            <path d="M16.104,0 L5.8883,0 C2.63628,0 0,2.63721 0,5.89037 L0,16.1096 C0,19.3628 2.63628,22 5.8883,22 L16.104,22 C19.356,22 21.9923,19.3628 21.9923,16.1096 L21.9923,5.89037 C21.9923,2.63721 19.356,0 16.104,0 Z" id="Vector" fill="#5F80F5"></path>
            <path d="M17.4974,7.29719 L15.3521,14.59 C15.3442,14.617 15.3311,14.6624 15.2557,14.6624 C15.18,14.6624 15.1669,14.617 15.1591,14.5898 L13.3555,8.36886 C13.264,8.05176 13.0716,7.77321 12.8074,7.57555 C12.5432,7.37789 12.2217,7.27193 11.8919,7.27379 C11.8895,7.273685 11.8871,7.273685 11.8847,7.27379 C11.5536,7.2733 11.2314,7.38138 10.9676,7.58147 C10.7037,7.78157 10.5126,8.06265 10.4237,8.3817 L9.20315,12.6632 C8.69668,14.1997 7.69287,14.7612 6.91848,14.6403 C6.18745,14.5237 5.71479,13.8312 5.71479,12.8759 L5.71479,7.29719 L4.30225,7.29719 L4.30225,12.8759 C4.30225,14.7957 5.50479,15.8465 6.69691,16.0362 C8.06552,16.254 9.78765,15.4279 10.5512,13.0901 L11.7836,8.76961 C11.7916,8.74106 11.8067,8.68812 11.8916,8.68769 L11.8927,8.68769 C11.9766,8.68769 11.9926,8.74049 11.9994,8.76561 L13.8013,14.9834 C13.8909,15.2993 14.0815,15.5772 14.344,15.7745 C14.6064,15.9719 14.9262,16.0778 15.2545,16.0762252 L15.2557,16.0762252 C15.5834,16.0781 15.9028,15.9727 16.1651,15.7761 C16.4274,15.5795 16.6182,15.3024 16.7084,14.9872 L18.9704,7.29719 L17.4974,7.29719 Z" id="Vector_2" fill="#FFFFFF"></path>
        </g>
    </g>
</svg>