<svg width="325" height="214" viewBox="0 0 325 214" fill="none" xmlns="http://www.w3.org/2000/svg">
<g clip-path="url(#clip0_9_17967)">
<path d="M8.5 174.5V40.5L164 8L316.5 40.5V172L153.5 207.5L8.5 174.5Z" fill="#E91F12"/>
<path d="M70.9136 38.749C67.6791 38.749 66.0703 40.689 66.0703 44.5605V164.967C66.0703 168.838 67.6876 170.778 70.9136 170.778C74.1396 170.778 75.7568 168.838 75.7568 164.967V44.7562C75.7568 40.7571 74.1396 38.749 70.9136 38.749Z" fill="#E7DCCC"/>
<path d="M252.65 58.957L248.777 126.55H257.102L253.425 58.957H252.65Z" fill="#E7DCCC"/>
<path d="M129.621 29.4148C126.386 29.4148 124.777 31.4143 124.777 35.4219V177.517C124.777 181.389 126.395 183.328 129.621 183.328C132.847 183.328 134.464 181.389 134.464 177.517V35.4134C134.464 31.4143 132.847 29.4062 129.621 29.4062V29.4148Z" fill="#E7DCCC"/>
<path d="M288.68 56.0556V98.2757C288.68 102.02 290.161 103.891 293.14 103.891H298.179V51.6821L293.14 50.2441C290.169 50.2441 288.68 52.1841 288.68 56.0556Z" fill="#E7DCCC"/>
<path d="M162.075 0L0 37.0809V176.811L162.075 213.891L324.15 176.811V37.0809L162.075 0ZM45.5301 86.4568H35.2648V55.8596C35.2648 51.8605 33.7156 49.8524 30.6173 49.8524C27.519 49.8524 25.774 51.7924 25.774 55.6639V153.667C25.774 157.675 27.3232 159.666 30.4215 159.666C33.5198 159.666 35.2648 157.726 35.2648 153.854V116.475H45.5301V153.276C45.5301 164.124 40.5592 169.544 30.6173 169.544C29.3831 169.544 28.2169 169.459 27.1274 169.306L24.4717 168.71C18.241 166.804 15.1086 161.606 15.1086 153.088V56.6338C15.1086 51.8009 16.113 47.972 18.1133 45.1386C18.3602 44.7898 18.607 44.4579 18.8794 44.1431C21.3989 41.2416 25.3654 39.7866 30.796 39.7866C33.2134 39.7866 35.3499 40.144 37.2055 40.8417C38.9164 41.4884 40.406 42.4158 41.6402 43.6581C44.2193 46.2447 45.5131 50.6352 45.5131 56.8296V86.4653L45.5301 86.4568ZM86.4128 164.379C86.4128 173.484 82.8037 178.751 75.6197 180.214C74.2407 180.495 72.7427 180.648 71.0999 180.648C65.8821 180.648 61.9666 179.278 59.3534 176.555C56.7233 173.816 55.4124 169.689 55.4124 164.192V45.53C55.4124 41.8968 56.0338 38.8422 57.251 36.3406C57.8468 35.1069 58.5789 34.0007 59.4811 33.0392C62.1964 30.1378 66.0012 28.6828 70.9126 28.6828C74.5982 28.6828 79.1096 29.5252 81.5525 31.1929C82.3611 31.7459 83.1101 32.3926 83.7826 33.1328C86.4979 36.1024 86.2936 38.5018 86.4128 41.4033V164.388V164.379ZM145.119 176.93C145.119 187.778 140.012 193.198 129.815 193.198C119.618 193.198 114.119 187.71 114.119 176.734V106.214H107.335V186.859H105.13L96.4908 184.911V27.5086L107.344 25.0666V96.7268H114.127V36.1875C114.127 30.7674 115.481 26.5982 118.196 23.6967C120.903 20.7952 124.716 19.3403 129.628 19.3403C134.539 19.3403 138.344 20.8293 141.059 23.7903C143.774 26.7598 145.128 30.9546 145.128 36.3747V176.921L145.119 176.93ZM184.555 181.15C184.555 192.126 179.448 197.614 169.251 197.614C159.053 197.614 154.142 192.194 154.142 181.346V159.657H164.22V181.933C164.22 185.804 165.837 187.744 169.063 187.744C172.289 187.744 173.907 185.804 173.907 181.933V110.868C173.907 107.252 172.093 105.448 168.484 105.448H164.22V96.3439H168.672C170.612 96.3439 171.932 95.893 172.647 94.991C173.353 94.0891 173.711 92.7958 173.711 91.1196V31.5332C173.711 29.9846 173.328 28.6913 172.553 27.6618C171.779 26.6322 170.612 26.1132 169.063 26.1132C165.837 26.1132 164.22 27.9255 164.22 31.5332V53.0347H154.142V32.6989C154.142 27.4065 155.427 23.3053 158.015 20.4038C160.594 17.5024 164.28 16.0474 169.055 16.0474C174.221 16.0474 177.933 17.5704 180.197 20.5995C182.461 23.6371 183.585 26.896 183.585 30.3845V90.1581C183.585 96.0972 181.388 99.4581 176.996 100.232V101.007C179.192 101.398 180.997 102.428 182.418 104.104C183.84 105.78 184.546 108.367 184.546 111.847V181.167L184.555 181.15ZM227.072 184.817L216.219 187.259V105.244H206.533V189.438L195.68 191.88V20.54L206.533 22.982V95.7653H216.219V25.1602L227.072 27.6022V184.826V184.817ZM259.511 177.517L257.681 135.841H248.19L246.539 180.435L235.992 182.809L244.462 31.5077L261.834 35.4132L269.989 175.16L259.511 177.517ZM309.024 51.7924V166.379L298.172 168.821V112.604H294.103L288.46 171.008L277.573 173.458L284.033 111.055C282.101 109.771 280.705 107.992 279.871 105.729C279.028 103.474 278.611 100.794 278.611 97.6883V56.0468C278.611 50.7543 279.42 46.8148 281.037 44.2282C282.067 42.586 283.761 41.4714 286.127 40.8758C287.481 40.5354 289.038 40.3567 290.826 40.3567L309.041 46.1171V51.7924H309.024Z" fill="#E7DCCC"/>
<path d="M206.542 201.264V201.256L206.508 201.264H206.542Z" fill="#E7DCCC"/>
</g>
<defs>
<clipPath id="clip0_9_17967">
<rect width="324.15" height="213.9" fill="white"/>
</clipPath>
</defs>
</svg>
