<?xml version="1.0" encoding="UTF-8"?>
<svg width="2871px" height="800px" viewBox="0 0 2871 800" version="1.1" xmlns="http://www.w3.org/2000/svg" xmlns:xlink="http://www.w3.org/1999/xlink">
    <title>voshod</title>
    <g id="Page-1-Copy-2" stroke="none" stroke-width="1" fill="#5f9ef8" fill-rule="evenodd">
        <g id="voshod" fill-rule="nonzero">
            <path d="M88.8636364,120 C116.875,120 136.193182,126.950355 148.75,139.858156 C160.340909,152.765957 166.136364,175.602837 166.136364,207.375887 L166.136364,335.460993 C166.136364,355.319149 163.238636,370.212766 156.477273,379.148936 C150.681818,388.085106 140.056818,393.049645 127.5,393.049645 L127.5,398.014184 C155.511364,398.014184 170,416.879433 170,455.602837 L170,591.631206 C170,623.404255 164.204545,645.248227 151.647727,659.148936 C139.090909,673.049645 118.806818,680 88.8636364,680 L1.93181818,680 C1.93181818,680 0.965909091,680 0.965909091,680 C0.965909091,680 0,680 0,680 C0,680 0,680 0,679.007092 C0,679.007092 0,678.014184 0,678.014184 L0,121.985816 C0,121.985816 0,120.992908 0,120.992908 C0,120.992908 0,120 0,120 C0,120 0,120 0.965909091,120 C0.965909091,120 1.93181818,120 1.93181818,120 L88.8636364,120 Z M65.6818182,183.546099 C64.7159091,183.546099 64.7159091,183.546099 65.6818182,183.546099 C64.7159091,183.546099 64.7159091,183.546099 63.75,184.539007 C63.75,184.539007 63.75,184.539007 63.75,185.531915 C63.75,185.531915 63.75,186.524823 63.75,186.524823 L63.75,361.276596 C63.75,361.276596 63.75,362.269504 63.75,362.269504 C63.75,362.269504 63.75,363.262411 63.75,363.262411 C63.75,363.262411 63.75,363.262411 64.7159091,364.255319 C64.7159091,364.255319 65.6818182,364.255319 65.6818182,364.255319 L102.386364,364.255319 C102.386364,364.255319 103.352273,364.255319 103.352273,364.255319 C103.352273,364.255319 104.318182,364.255319 104.318182,363.262411 C104.318182,363.262411 104.318182,362.269504 105.284091,362.269504 C105.284091,362.269504 105.284091,361.276596 105.284091,361.276596 L105.284091,185.531915 C105.284091,185.531915 105.284091,184.539007 105.284091,184.539007 C105.284091,184.539007 105.284091,183.546099 104.318182,183.546099 C104.318182,183.546099 103.352273,183.546099 103.352273,183.546099 C103.352273,183.546099 102.386364,183.546099 102.386364,183.546099 L65.6818182,183.546099 Z M65.6818182,427.801418 C64.7159091,427.801418 64.7159091,427.801418 65.6818182,427.801418 C64.7159091,427.801418 64.7159091,427.801418 63.75,428.794326 C63.75,428.794326 63.75,428.794326 63.75,429.787234 C63.75,429.787234 63.75,430.780142 63.75,430.780142 L63.75,613.475177 C63.75,613.475177 63.75,614.468085 63.75,614.468085 C63.75,614.468085 63.75,615.460993 63.75,615.460993 C63.75,615.460993 63.75,615.460993 64.7159091,615.460993 C64.7159091,615.460993 65.6818182,615.460993 65.6818182,615.460993 L104.318182,615.460993 C104.318182,615.460993 105.284091,615.460993 105.284091,615.460993 C105.284091,615.460993 106.25,615.460993 106.25,615.460993 C106.25,615.460993 106.25,615.460993 106.25,614.468085 C106.25,614.468085 106.25,613.475177 106.25,613.475177 L106.25,429.787234 C106.25,429.787234 106.25,428.794326 106.25,428.794326 C106.25,428.794326 106.25,427.801418 106.25,427.801418 C106.25,427.801418 106.25,427.801418 105.284091,427.801418 C104.318182,427.801418 104.318182,427.801418 104.318182,427.801418 L65.6818182,427.801418 Z" id="Shape"></path>
            <path d="M295,110 C351.988636,110 380,137.853403 380,194.554974 L380,595.445026 C380,651.151832 351.988636,680 295,680 C238.011364,680 210,652.146597 210,595.445026 L210,193.560209 C210,137.853403 238.011364,110 295,110 Z M275.681818,173.664921 C274.715909,173.664921 274.715909,173.664921 275.681818,173.664921 C274.715909,173.664921 274.715909,173.664921 273.75,174.659686 C273.75,174.659686 273.75,174.659686 273.75,175.65445 C273.75,175.65445 273.75,176.649215 273.75,176.649215 L273.75,612.356021 C273.75,612.356021 273.75,613.350785 273.75,613.350785 C273.75,613.350785 273.75,614.34555 273.75,614.34555 C273.75,614.34555 273.75,614.34555 274.715909,614.34555 C275.681818,614.34555 275.681818,614.34555 275.681818,614.34555 L314.318182,614.34555 C314.318182,614.34555 315.284091,614.34555 315.284091,614.34555 C315.284091,614.34555 316.25,614.34555 316.25,614.34555 C316.25,614.34555 316.25,614.34555 317.215909,613.350785 C317.215909,613.350785 317.215909,612.356021 317.215909,612.356021 L317.215909,175.65445 C317.215909,175.65445 317.215909,174.659686 317.215909,174.659686 C317.215909,174.659686 317.215909,173.664921 316.25,173.664921 C316.25,173.664921 315.284091,173.664921 315.284091,173.664921 C315.284091,173.664921 314.318182,173.664921 314.318182,173.664921 L275.681818,173.664921 Z" id="Shape"></path>
            <path d="M515,110 C571.022727,110 598.068182,137.950963 598.068182,194.851138 L598.068182,312.644483 C598.068182,312.644483 598.068182,313.642732 598.068182,313.642732 C598.068182,313.642732 598.068182,314.640981 597.102273,314.640981 C597.102273,314.640981 596.136364,314.640981 596.136364,315.639229 C596.136364,315.639229 595.170455,315.639229 595.170455,315.639229 L538.181818,315.639229 C538.181818,315.639229 537.215909,315.639229 537.215909,315.639229 C537.215909,315.639229 536.25,315.639229 536.25,314.640981 C536.25,314.640981 536.25,313.642732 535.284091,313.642732 C535.284091,313.642732 535.284091,312.644483 535.284091,312.644483 L535.284091,175.884413 C535.284091,175.884413 535.284091,174.886165 535.284091,174.886165 C535.284091,174.886165 535.284091,173.887916 534.318182,173.887916 C534.318182,173.887916 533.352273,173.887916 533.352273,173.887916 C533.352273,173.887916 532.386364,173.887916 532.386364,173.887916 L493.75,173.887916 C493.75,173.887916 492.784091,173.887916 492.784091,173.887916 C492.784091,173.887916 491.818182,173.887916 491.818182,173.887916 C491.818182,173.887916 491.818182,173.887916 491.818182,174.886165 C491.818182,174.886165 491.818182,175.884413 491.818182,175.884413 L491.818182,613.117338 C491.818182,613.117338 491.818182,614.115587 491.818182,614.115587 C491.818182,614.115587 491.818182,615.113835 491.818182,615.113835 C491.818182,615.113835 491.818182,615.113835 492.784091,615.113835 C493.75,615.113835 493.75,615.113835 493.75,615.113835 L532.386364,615.113835 C532.386364,615.113835 533.352273,615.113835 533.352273,615.113835 C533.352273,615.113835 534.318182,615.113835 534.318182,615.113835 C534.318182,615.113835 534.318182,615.113835 535.284091,614.115587 C535.284091,614.115587 535.284091,613.117338 535.284091,613.117338 L535.284091,477.355517 C535.284091,477.355517 535.284091,476.357268 535.284091,476.357268 C535.284091,476.357268 535.284091,475.359019 536.25,475.359019 C536.25,475.359019 537.215909,475.359019 537.215909,475.359019 C537.215909,475.359019 538.181818,475.359019 538.181818,475.359019 L597.102273,475.359019 C597.102273,475.359019 598.068182,475.359019 598.068182,475.359019 C598.068182,475.359019 599.034091,475.359019 599.034091,475.359019 C599.034091,475.359019 599.034091,475.359019 600,476.357268 C600,476.357268 600,477.355517 600,477.355517 L600,595.148862 C600,651.050788 571.988636,680 515,680 C458.011364,680 430,652.049037 430,595.148862 L430,193.85289 C430,137.950963 458.011364,110 515,110 Z" id="Path"></path>
            <path d="M696.943005,120.992908 C696.943005,120 696.943005,120.992908 696.943005,120.992908 C697.927461,120.992908 698.911917,120.992908 698.911917,121.985816 C698.911917,121.985816 698.911917,121.985816 699.896373,122.978723 C699.896373,122.978723 699.896373,123.971631 699.896373,123.971631 L712.694301,233.191489 C715.647668,261.985816 718.601036,287.801418 720.569948,309.64539 C722.53886,332.48227 723.523316,349.361702 723.523316,361.276596 L729.430052,361.276596 C729.430052,349.361702 730.414508,332.48227 732.38342,309.64539 C734.352332,286.808511 737.305699,261.985816 740.259067,233.191489 L753.056995,123.971631 C753.056995,123.971631 753.056995,122.978723 753.056995,122.978723 C753.056995,122.978723 753.056995,121.985816 754.041451,121.985816 C754.041451,121.985816 755.025907,121.985816 755.025907,121.985816 C755.025907,121.985816 756.010363,121.985816 756.010363,121.985816 L815.07772,121.985816 C815.07772,121.985816 816.062176,121.985816 816.062176,121.985816 C816.062176,121.985816 817.046632,121.985816 817.046632,121.985816 C817.046632,121.985816 817.046632,121.985816 818.031088,122.978723 C818.031088,122.978723 818.031088,123.971631 818.031088,123.971631 L786.528497,337.446809 C783.57513,356.312057 780.621762,369.219858 776.683938,376.170213 C772.746114,383.120567 766.839378,387.092199 758.963731,387.092199 L758.963731,392.056738 C767.823834,392.056738 773.73057,395.035461 777.668394,401.985816 C781.606218,407.943262 784.559585,421.843972 787.512953,441.702128 L820,678.014184 C820,678.014184 820,679.007092 820,679.007092 C820,679.007092 820,680 819.015544,680 C819.015544,680 818.031088,680 818.031088,680 C818.031088,680 817.046632,680 817.046632,680 L756.010363,680 C756.010363,680 755.025907,680 755.025907,680 C755.025907,680 754.041451,680 754.041451,680 C754.041451,680 754.041451,680 753.056995,679.007092 C753.056995,679.007092 753.056995,678.014184 753.056995,678.014184 L737.305699,544.964539 C734.352332,519.148936 731.398964,494.326241 729.430052,471.489362 C727.46114,448.652482 726.476684,429.787234 726.476684,416.879433 L720.569948,416.879433 C720.569948,429.787234 719.585492,447.659574 717.61658,470.496454 C715.647668,493.333333 713.678756,518.156028 709.740933,543.971631 L696.943005,678.014184 C696.943005,678.014184 696.943005,679.007092 696.943005,679.007092 C696.943005,679.007092 696.943005,680 695.958549,680 C695.958549,680 694.974093,680 694.974093,680 C694.974093,680 693.989637,680 693.989637,680 L632.953368,680 C632.953368,680 631.968912,680 631.968912,680 C631.968912,680 630.984456,680 630.984456,680 C630.984456,680 630.984456,680 630,679.007092 C630,679.007092 630,678.014184 630,678.014184 L666.42487,439.716312 C669.378238,419.858156 672.331606,405.957447 676.26943,400 C680.207254,394.042553 686.11399,390.070922 694.974093,390.070922 L694.974093,385.106383 C688.082902,385.106383 682.176166,381.134752 677.253886,374.184397 C673.316062,367.234043 669.378238,354.326241 667.409326,335.460993 L635.906736,121.985816 C635.906736,121.985816 635.906736,120.992908 635.906736,120.992908 C635.906736,120.992908 635.906736,120 636.891192,120 C636.891192,120 637.875648,120 637.875648,120 C637.875648,120 638.860104,120 638.860104,120 L696.943005,120.992908 Z" id="Path"></path>
            <path d="M935,110 C991.988636,110 1020,137.853403 1020,194.554974 L1020,595.445026 C1020,651.151832 991.988636,680 935,680 C878.011364,680 850,652.146597 850,595.445026 L850,193.560209 C850,137.853403 878.977273,110 935,110 Z M915.681818,173.664921 C915.681818,173.664921 915.681818,173.664921 915.681818,173.664921 C914.715909,173.664921 913.75,173.664921 913.75,174.659686 C913.75,174.659686 913.75,174.659686 912.784091,175.65445 C912.784091,175.65445 912.784091,176.649215 912.784091,176.649215 L912.784091,612.356021 C912.784091,612.356021 912.784091,613.350785 912.784091,613.350785 C912.784091,613.350785 912.784091,614.34555 913.75,614.34555 C913.75,614.34555 914.715909,614.34555 914.715909,614.34555 C914.715909,614.34555 915.681818,614.34555 915.681818,614.34555 L954.318182,614.34555 C954.318182,614.34555 955.284091,614.34555 955.284091,614.34555 C955.284091,614.34555 956.25,614.34555 956.25,614.34555 C956.25,614.34555 956.25,614.34555 957.215909,613.350785 C957.215909,613.350785 957.215909,612.356021 957.215909,612.356021 L957.215909,175.65445 C957.215909,175.65445 957.215909,174.659686 957.215909,174.659686 C957.215909,174.659686 957.215909,173.664921 956.25,173.664921 C955.284091,173.664921 955.284091,173.664921 955.284091,173.664921 C955.284091,173.664921 954.318182,173.664921 954.318182,173.664921 L915.681818,173.664921 Z" id="Shape"></path>
            <path d="M1235.46729,121.993958 C1235.46729,121.993958 1235.46729,121.993958 1235.46729,121.993958 C1236.4486,121.993958 1236.4486,121.993958 1237.42991,122.990937 C1237.42991,122.990937 1237.42991,122.990937 1237.42991,123.987915 C1237.42991,123.987915 1237.42991,124.984894 1237.42991,124.984894 L1237.42991,617.492447 C1237.42991,617.492447 1237.42991,618.489426 1237.42991,618.489426 C1237.42991,618.489426 1237.42991,619.486405 1237.42991,619.486405 C1237.42991,619.486405 1237.42991,619.486405 1238.41121,619.486405 C1238.41121,619.486405 1239.39252,619.486405 1239.39252,619.486405 L1258.03738,619.486405 C1258.03738,619.486405 1259.01869,619.486405 1259.01869,619.486405 C1259.01869,619.486405 1260,619.486405 1260,620.483384 C1260,620.483384 1260,621.480363 1260,621.480363 C1260,621.480363 1260,622.477341 1260,622.477341 L1260,778.006042 C1260,778.006042 1260,779.003021 1260,779.003021 C1260,779.003021 1260,780 1260,780 C1260,780 1260,780 1259.01869,780 C1259.01869,780 1258.03738,780 1258.03738,780 L1201.1215,780 C1201.1215,780 1200.14019,780 1200.14019,780 C1200.14019,780 1199.15888,780 1199.15888,780 C1199.15888,780 1199.15888,780 1199.15888,779.003021 C1199.15888,779.003021 1199.15888,778.006042 1199.15888,778.006042 L1199.15888,686.283988 C1199.15888,686.283988 1199.15888,685.287009 1199.15888,685.287009 C1199.15888,685.287009 1199.15888,684.29003 1199.15888,684.29003 C1199.15888,684.29003 1199.15888,684.29003 1198.17757,683.293051 C1198.17757,683.293051 1197.19626,683.293051 1197.19626,683.293051 L1115.74766,683.293051 C1115.74766,683.293051 1114.76636,683.293051 1114.76636,683.293051 C1114.76636,683.293051 1113.78505,683.293051 1113.78505,684.29003 C1113.78505,684.29003 1113.78505,685.287009 1113.78505,685.287009 C1113.78505,685.287009 1113.78505,686.283988 1113.78505,686.283988 L1113.78505,778.006042 C1113.78505,778.006042 1113.78505,779.003021 1113.78505,779.003021 C1113.78505,779.003021 1113.78505,780 1112.80374,780 C1112.80374,780 1111.82243,780 1111.82243,780 C1111.82243,780 1110.84112,780 1110.84112,780 L1052.94393,780 C1052.94393,780 1051.96262,780 1051.96262,780 C1051.96262,780 1050.98131,780 1050.98131,780 C1050.98131,780 1050.98131,780 1050,779.003021 C1050,779.003021 1050,778.006042 1050,778.006042 L1050,621.480363 C1050,621.480363 1050,620.483384 1050,620.483384 C1050,620.483384 1050,619.486405 1050.98131,619.486405 C1050.98131,619.486405 1051.96262,619.486405 1051.96262,618.489426 C1051.96262,618.489426 1052.94393,618.489426 1052.94393,618.489426 L1062.75701,618.489426 C1064.71963,618.489426 1066.68224,618.489426 1068.64486,616.495468 C1070.60748,615.498489 1071.58879,613.504532 1071.58879,611.510574 C1072.57009,607.522659 1073.5514,595.558912 1073.5514,577.613293 L1077.47664,121.993958 C1077.47664,121.993958 1077.47664,120.996979 1077.47664,120.996979 C1077.47664,120.996979 1077.47664,120 1078.45794,120 C1078.45794,120 1079.43925,120 1079.43925,120 C1079.43925,120 1080.42056,120 1080.42056,120 L1235.46729,121.993958 Z M1140.28037,185.800604 C1140.28037,185.800604 1139.29907,185.800604 1140.28037,185.800604 C1139.29907,185.800604 1138.31776,185.800604 1138.31776,186.797583 C1138.31776,186.797583 1138.31776,186.797583 1137.33645,187.794562 C1136.35514,188.791541 1137.33645,188.791541 1137.33645,188.791541 L1134.39252,579.607251 C1134.39252,587.583082 1134.39252,593.564955 1134.39252,600.543807 C1134.39252,606.52568 1133.41121,612.507553 1133.41121,617.492447 C1133.41121,617.492447 1133.41121,618.489426 1133.41121,618.489426 C1133.41121,618.489426 1133.41121,619.486405 1133.41121,619.486405 C1133.41121,619.486405 1133.41121,619.486405 1134.39252,619.486405 C1134.39252,619.486405 1135.37383,619.486405 1135.37383,619.486405 L1170.70093,619.486405 C1170.70093,619.486405 1171.68224,619.486405 1171.68224,619.486405 C1171.68224,619.486405 1172.66355,619.486405 1172.66355,619.486405 C1172.66355,619.486405 1172.66355,619.486405 1172.66355,618.489426 C1172.66355,618.489426 1172.66355,617.492447 1172.66355,617.492447 L1172.66355,188.791541 C1172.66355,188.791541 1172.66355,187.794562 1172.66355,187.794562 C1172.66355,187.794562 1172.66355,186.797583 1172.66355,186.797583 C1172.66355,186.797583 1172.66355,186.797583 1171.68224,186.797583 C1170.70093,186.797583 1170.70093,186.797583 1170.70093,186.797583 L1140.28037,185.800604 Z" id="Shape"></path>
            <polygon id="Path" points="1450 0 1450 800 1400 800 1400 0"></polygon>
            <path d="M1705.57627,120 C1735.0678,120 1755.40678,126.950355 1768.62712,139.858156 C1780.83051,152.765957 1786.9322,175.602837 1786.9322,207.375887 L1786.9322,335.460993 C1786.9322,355.319149 1783.88136,370.212766 1776.76271,379.148936 C1770.66102,388.085106 1759.47458,393.049645 1746.25424,393.049645 L1746.25424,398.014184 C1775.74576,398.014184 1791,416.879433 1791,455.602837 L1791,591.631206 C1791,623.404255 1784.89831,645.248227 1771.67797,659.148936 C1758.45763,673.049645 1737.10169,680 1705.57627,680 L1614.05085,680 C1614.05085,680 1613.0339,680 1613.0339,680 C1613.0339,680 1612.01695,680 1612.01695,680 C1612.01695,680 1612.01695,680 1611,679.007092 C1611,679.007092 1611,678.014184 1611,678.014184 L1611,121.985816 C1611,121.985816 1611,120.992908 1611,120.992908 C1611,120.992908 1611,120 1612.01695,120 C1612.01695,120 1613.0339,120 1613.0339,120 C1613.0339,120 1614.05085,120 1614.05085,120 L1705.57627,120 Z M1681.16949,183.546099 C1680.15254,183.546099 1680.15254,183.546099 1681.16949,183.546099 C1680.15254,183.546099 1680.15254,183.546099 1679.13559,184.539007 C1679.13559,184.539007 1679.13559,184.539007 1679.13559,185.531915 C1679.13559,185.531915 1679.13559,186.524823 1679.13559,186.524823 L1679.13559,361.276596 C1679.13559,361.276596 1679.13559,362.269504 1679.13559,362.269504 C1679.13559,362.269504 1679.13559,363.262411 1679.13559,363.262411 C1679.13559,363.262411 1679.13559,363.262411 1680.15254,364.255319 C1680.15254,364.255319 1681.16949,364.255319 1681.16949,364.255319 L1719.81356,364.255319 C1719.81356,364.255319 1720.83051,364.255319 1720.83051,364.255319 C1720.83051,364.255319 1721.84746,364.255319 1721.84746,363.262411 C1721.84746,363.262411 1721.84746,362.269504 1721.84746,362.269504 C1721.84746,362.269504 1721.84746,361.276596 1721.84746,361.276596 L1721.84746,185.531915 C1721.84746,185.531915 1721.84746,184.539007 1721.84746,184.539007 C1721.84746,184.539007 1721.84746,183.546099 1721.84746,183.546099 C1721.84746,183.546099 1721.84746,183.546099 1720.83051,183.546099 C1720.83051,183.546099 1719.81356,183.546099 1719.81356,183.546099 L1681.16949,183.546099 Z M1681.16949,427.801418 C1680.15254,427.801418 1680.15254,427.801418 1681.16949,427.801418 C1680.15254,427.801418 1680.15254,427.801418 1679.13559,428.794326 C1679.13559,428.794326 1679.13559,428.794326 1679.13559,429.787234 C1679.13559,430.780142 1679.13559,430.780142 1679.13559,430.780142 L1679.13559,613.475177 C1679.13559,613.475177 1679.13559,614.468085 1679.13559,614.468085 C1679.13559,614.468085 1679.13559,615.460993 1679.13559,615.460993 C1679.13559,615.460993 1679.13559,615.460993 1680.15254,615.460993 C1680.15254,615.460993 1681.16949,615.460993 1681.16949,615.460993 L1721.84746,615.460993 C1721.84746,615.460993 1722.86441,615.460993 1722.86441,615.460993 C1722.86441,615.460993 1723.88136,615.460993 1723.88136,615.460993 C1723.88136,615.460993 1723.88136,615.460993 1724.89831,614.468085 C1724.89831,614.468085 1724.89831,613.475177 1724.89831,613.475177 L1724.89831,429.787234 C1724.89831,429.787234 1724.89831,428.794326 1724.89831,428.794326 C1724.89831,428.794326 1724.89831,427.801418 1723.88136,427.801418 C1723.88136,427.801418 1722.86441,427.801418 1722.86441,427.801418 C1722.86441,427.801418 1721.84746,427.801418 1721.84746,427.801418 L1681.16949,427.801418 Z" id="Shape"></path>
            <path d="M1916,110 C1972.98864,110 2001,137.853403 2001,194.554974 L2001,595.445026 C2001,651.151832 1972.98864,680 1916,680 C1859.01136,680 1831,652.146597 1831,595.445026 L1831,193.560209 C1831,137.853403 1859.01136,110 1916,110 Z M1896.68182,173.664921 C1895.71591,173.664921 1895.71591,173.664921 1896.68182,173.664921 C1895.71591,173.664921 1894.75,173.664921 1894.75,174.659686 C1894.75,174.659686 1894.75,174.659686 1893.78409,175.65445 C1893.78409,175.65445 1893.78409,176.649215 1893.78409,176.649215 L1893.78409,612.356021 C1893.78409,612.356021 1893.78409,613.350785 1893.78409,613.350785 C1893.78409,613.350785 1893.78409,614.34555 1894.75,614.34555 C1894.75,614.34555 1895.71591,614.34555 1895.71591,614.34555 C1895.71591,614.34555 1896.68182,614.34555 1896.68182,614.34555 L1935.31818,614.34555 C1935.31818,614.34555 1936.28409,614.34555 1936.28409,614.34555 C1936.28409,614.34555 1937.25,614.34555 1937.25,614.34555 C1937.25,614.34555 1937.25,614.34555 1937.25,613.350785 C1937.25,613.350785 1937.25,612.356021 1937.25,612.356021 L1937.25,175.65445 C1937.25,175.65445 1937.25,174.659686 1937.25,174.659686 C1937.25,174.659686 1937.25,173.664921 1937.25,173.664921 C1937.25,173.664921 1937.25,173.664921 1936.28409,173.664921 C1936.28409,173.664921 1935.31818,173.664921 1935.31818,173.664921 L1896.68182,173.664921 Z" id="Shape"></path>
            <path d="M2125.0463,110 C2181.06107,110 2208.10268,137.950963 2208.10268,194.851138 L2208.10268,312.644483 C2208.10268,312.644483 2208.10268,313.642732 2208.10268,313.642732 C2208.10268,313.642732 2208.10268,314.640981 2208.10268,314.640981 C2208.10268,314.640981 2208.10268,314.640981 2207.13691,315.639229 C2207.13691,315.639229 2206.17114,315.639229 2206.17114,315.639229 L2149.1906,315.639229 C2149.1906,315.639229 2148.22483,315.639229 2148.22483,315.639229 C2148.22483,315.639229 2147.25905,315.639229 2147.25905,314.640981 C2147.25905,314.640981 2147.25905,313.642732 2146.29328,313.642732 C2146.29328,313.642732 2146.29328,312.644483 2146.29328,312.644483 L2146.29328,175.884413 C2146.29328,175.884413 2146.29328,174.886165 2146.29328,174.886165 C2146.29328,174.886165 2146.29328,173.887916 2146.29328,173.887916 C2146.29328,173.887916 2146.29328,173.887916 2145.32751,173.887916 C2145.32751,173.887916 2144.36174,173.887916 2144.36174,173.887916 L2105.73086,173.887916 C2105.73086,173.887916 2104.76509,173.887916 2104.76509,173.887916 C2104.76509,173.887916 2103.79932,173.887916 2103.79932,173.887916 C2103.79932,173.887916 2103.79932,173.887916 2102.83355,174.886165 C2102.83355,174.886165 2102.83355,175.884413 2102.83355,175.884413 L2102.83355,613.117338 C2102.83355,613.117338 2102.83355,614.115587 2102.83355,614.115587 C2102.83355,614.115587 2102.83355,615.113835 2103.79932,615.113835 C2103.79932,615.113835 2104.76509,615.113835 2104.76509,615.113835 C2104.76509,615.113835 2105.73086,615.113835 2105.73086,615.113835 L2144.36174,615.113835 C2144.36174,615.113835 2145.32751,615.113835 2145.32751,615.113835 C2145.32751,615.113835 2146.29328,615.113835 2146.29328,615.113835 C2146.29328,615.113835 2146.29328,615.113835 2146.29328,614.115587 C2146.29328,614.115587 2146.29328,613.117338 2146.29328,613.117338 L2146.29328,477.355517 C2146.29328,477.355517 2146.29328,476.357268 2146.29328,476.357268 C2146.29328,476.357268 2146.29328,475.359019 2147.25905,475.359019 C2147.25905,475.359019 2148.22483,475.359019 2148.22483,475.359019 C2148.22483,475.359019 2149.1906,475.359019 2149.1906,475.359019 L2208.10268,475.359019 C2208.10268,475.359019 2209.06846,475.359019 2209.06846,475.359019 C2209.06846,475.359019 2210.03423,475.359019 2210.03423,475.359019 C2210.03423,475.359019 2210.03423,475.359019 2211,476.357268 C2211,476.357268 2211,477.355517 2211,477.355517 L2211,595.148862 C2211,651.050788 2182.99261,680 2126.01207,680 C2069.03153,680 2041.02414,652.049037 2041.02414,595.148862 L2041.02414,193.85289 C2040.05837,137.950963 2068.06576,110 2125.0463,110 Z" id="Path"></path>
            <path d="M2306.65445,120.992908 C2306.65445,120.992908 2307.64921,120.992908 2306.65445,120.992908 C2307.64921,120.992908 2307.64921,120.992908 2308.64398,121.985816 C2308.64398,121.985816 2308.64398,121.985816 2308.64398,122.978723 C2308.64398,122.978723 2308.64398,123.971631 2308.64398,123.971631 L2321.57592,233.191489 C2324.56021,261.985816 2327.5445,287.801418 2329.53403,309.64539 C2331.52356,332.48227 2332.51832,349.361702 2332.51832,361.276596 L2339.48168,361.276596 C2339.48168,349.361702 2340.47644,332.48227 2342.46597,309.64539 C2344.4555,286.808511 2347.43979,261.985816 2350.42408,233.191489 L2363.35602,123.971631 C2363.35602,123.971631 2363.35602,122.978723 2363.35602,122.978723 C2363.35602,122.978723 2363.35602,121.985816 2363.35602,121.985816 C2363.35602,121.985816 2363.35602,121.985816 2364.35079,121.985816 C2364.35079,121.985816 2365.34555,121.985816 2365.34555,121.985816 L2425.03141,121.985816 C2425.03141,121.985816 2426.02618,121.985816 2426.02618,121.985816 C2426.02618,121.985816 2427.02094,121.985816 2427.02094,121.985816 C2427.02094,121.985816 2427.02094,121.985816 2428.01571,122.978723 C2428.01571,122.978723 2428.01571,123.971631 2428.01571,123.971631 L2395.18848,336.453901 C2392.20419,355.319149 2389.2199,368.22695 2385.24084,375.177305 C2381.26178,382.12766 2375.29319,386.099291 2367.33508,386.099291 L2367.33508,391.06383 C2376.28796,391.06383 2382.25654,394.042553 2386.2356,400.992908 C2390.21466,406.950355 2393.19895,420.851064 2396.18325,440.70922 L2431,678.014184 C2431,678.014184 2431,679.007092 2431,679.007092 C2431,679.007092 2431,680 2431,680 C2431,680 2431,680 2430.00524,680 C2430.00524,680 2429.01047,680 2429.01047,680 L2367.33508,680 C2367.33508,680 2366.34031,680 2366.34031,680 C2366.34031,680 2365.34555,680 2365.34555,680 C2365.34555,680 2365.34555,680 2365.34555,679.007092 C2365.34555,679.007092 2365.34555,678.014184 2365.34555,678.014184 L2349.42932,544.964539 C2346.44503,519.148936 2343.46073,494.326241 2341.4712,471.489362 C2339.48168,448.652482 2338.48691,429.787234 2338.48691,417.87234 L2332.51832,417.87234 C2332.51832,430.780142 2331.52356,448.652482 2329.53403,471.489362 C2327.5445,494.326241 2325.55497,519.148936 2321.57592,544.964539 L2306.65445,678.014184 C2306.65445,678.014184 2306.65445,679.007092 2306.65445,679.007092 C2306.65445,679.007092 2306.65445,680 2306.65445,680 C2306.65445,680 2306.65445,680 2305.65969,680 C2305.65969,680 2304.66492,680 2304.66492,680 L2242.98953,680 C2242.98953,680 2241.99476,680 2241.99476,680 C2241.99476,680 2241,680 2241,680 C2241,680 2241,680 2241,679.007092 C2241,679.007092 2241,678.014184 2241,678.014184 L2275.81675,439.716312 C2278.80105,419.858156 2281.78534,405.957447 2285.7644,400 C2289.74346,394.042553 2295.71204,390.070922 2304.66492,390.070922 L2304.66492,385.106383 C2296.70681,385.106383 2291.73298,381.134752 2286.75916,374.184397 C2282.7801,367.234043 2278.80105,354.326241 2276.81152,335.460993 L2244.97906,121.985816 C2244.97906,121.985816 2244.97906,120.992908 2244.97906,120.992908 C2244.97906,120.992908 2244.97906,120 2244.97906,120 C2244.97906,120 2244.97906,120 2245.97382,120 C2245.97382,120 2246.96859,120 2246.96859,120 L2306.65445,120.992908 Z" id="Path"></path>
            <path d="M2546,110 C2602.98864,110 2631,137.853403 2631,194.554974 L2631,595.445026 C2631,651.151832 2602.98864,680 2546,680 C2489.01136,680 2461,652.146597 2461,595.445026 L2461,193.560209 C2461,137.853403 2489.97727,110 2546,110 Z M2526.68182,173.664921 C2526.68182,173.664921 2526.68182,173.664921 2526.68182,173.664921 C2525.71591,173.664921 2525.71591,173.664921 2524.75,174.659686 C2524.75,174.659686 2524.75,174.659686 2524.75,175.65445 C2524.75,175.65445 2524.75,176.649215 2524.75,176.649215 L2524.75,612.356021 C2524.75,612.356021 2524.75,613.350785 2524.75,613.350785 C2524.75,613.350785 2524.75,614.34555 2524.75,614.34555 C2524.75,614.34555 2524.75,614.34555 2525.71591,614.34555 C2525.71591,614.34555 2526.68182,614.34555 2526.68182,614.34555 L2565.31818,614.34555 C2565.31818,614.34555 2566.28409,614.34555 2566.28409,614.34555 C2566.28409,614.34555 2567.25,614.34555 2567.25,614.34555 C2567.25,614.34555 2567.25,614.34555 2568.21591,613.350785 C2568.21591,613.350785 2568.21591,612.356021 2568.21591,612.356021 L2568.21591,175.65445 C2568.21591,175.65445 2568.21591,174.659686 2568.21591,174.659686 C2568.21591,174.659686 2568.21591,173.664921 2567.25,173.664921 C2566.28409,173.664921 2566.28409,173.664921 2566.28409,173.664921 C2566.28409,173.664921 2565.31818,173.664921 2565.31818,173.664921 L2526.68182,173.664921 Z" id="Shape"></path>
            <path d="M2845.72222,120.998487 C2845.72222,120.998487 2846.69444,120.998487 2845.72222,120.998487 C2846.69444,120.998487 2846.69444,120.998487 2847.66667,121.996974 C2847.66667,121.996974 2847.66667,121.996974 2847.66667,122.995461 C2847.66667,122.995461 2847.66667,123.993949 2847.66667,123.993949 L2847.66667,617.246596 C2847.66667,617.246596 2847.66667,618.245083 2847.66667,618.245083 C2847.66667,618.245083 2847.66667,619.24357 2848.63889,619.24357 C2848.63889,619.24357 2849.61111,619.24357 2849.61111,619.24357 C2849.61111,619.24357 2850.58333,619.24357 2850.58333,619.24357 L2869.05556,619.24357 C2869.05556,619.24357 2870.02778,619.24357 2870.02778,619.24357 C2870.02778,619.24357 2871,619.24357 2871,620.242057 C2871,620.242057 2871,621.240545 2871,621.240545 C2871,621.240545 2871,622.239032 2871,622.239032 L2871,778.003026 C2871,778.003026 2871,779.001513 2871,779.001513 C2871,779.001513 2871,780 2871,780 C2871,780 2871,780 2870.02778,780 C2870.02778,780 2869.05556,780 2869.05556,780 L2811.69444,780 C2811.69444,780 2810.72222,780 2810.72222,780 C2810.72222,780 2809.75,780 2809.75,780 C2809.75,780 2809.75,780 2808.77778,779.001513 C2808.77778,779.001513 2808.77778,778.003026 2808.77778,778.003026 L2808.77778,686.142209 C2808.77778,686.142209 2808.77778,685.143722 2808.77778,685.143722 C2808.77778,685.143722 2808.77778,684.145234 2808.77778,684.145234 C2808.77778,684.145234 2808.77778,684.145234 2807.80556,683.146747 C2807.80556,683.146747 2806.83333,683.146747 2806.83333,683.146747 L2726.13889,683.146747 C2726.13889,683.146747 2725.16667,683.146747 2725.16667,683.146747 C2725.16667,683.146747 2724.19444,683.146747 2724.19444,684.145234 C2724.19444,684.145234 2724.19444,685.143722 2723.22222,685.143722 C2723.22222,685.143722 2723.22222,686.142209 2723.22222,686.142209 L2723.22222,778.003026 C2723.22222,778.003026 2723.22222,779.001513 2723.22222,779.001513 C2723.22222,779.001513 2723.22222,780 2723.22222,780 C2723.22222,780 2723.22222,780 2722.25,780 C2722.25,780 2721.27778,780 2721.27778,780 L2663.91667,780 C2663.91667,780 2662.94444,780 2662.94444,780 C2662.94444,780 2661.97222,780 2661.97222,780 C2661.97222,780 2661.97222,780 2661,779.001513 C2661,779.001513 2661,778.003026 2661,778.003026 L2661,621.240545 C2661,621.240545 2661,620.242057 2661,620.242057 C2661,620.242057 2661,619.24357 2661.97222,619.24357 C2661.97222,619.24357 2662.94444,619.24357 2662.94444,618.245083 C2662.94444,618.245083 2663.91667,618.245083 2663.91667,618.245083 L2673.63889,618.245083 C2675.58333,618.245083 2677.52778,618.245083 2679.47222,616.248109 C2681.41667,615.249622 2682.38889,613.252648 2682.38889,611.255673 C2683.36111,607.261725 2684.33333,595.279879 2684.33333,577.30711 L2688.22222,121.996974 C2688.22222,121.996974 2688.22222,120.998487 2688.22222,120.998487 C2688.22222,120.998487 2688.22222,120 2688.22222,120 C2688.22222,120 2688.22222,120 2689.19444,120 C2689.19444,120 2690.16667,120 2690.16667,120 L2845.72222,120.998487 Z M2751.41667,184.901664 C2751.41667,184.901664 2751.41667,184.901664 2751.41667,184.901664 C2750.44444,184.901664 2750.44444,184.901664 2749.47222,185.900151 C2749.47222,185.900151 2749.47222,185.900151 2749.47222,186.898638 C2749.47222,186.898638 2749.47222,187.897126 2749.47222,187.897126 L2746.55556,579.304085 C2746.55556,587.291982 2746.55556,593.282905 2746.55556,600.272315 C2746.55556,606.263238 2745.58333,612.25416 2745.58333,617.246596 C2745.58333,617.246596 2745.58333,618.245083 2745.58333,618.245083 C2745.58333,618.245083 2745.58333,619.24357 2745.58333,619.24357 C2745.58333,619.24357 2745.58333,619.24357 2746.55556,619.24357 C2747.52778,619.24357 2747.52778,619.24357 2747.52778,619.24357 L2782.52778,619.24357 C2782.52778,619.24357 2783.5,619.24357 2783.5,619.24357 C2783.5,619.24357 2784.47222,619.24357 2784.47222,619.24357 C2784.47222,619.24357 2784.47222,619.24357 2785.44444,618.245083 C2785.44444,618.245083 2785.44444,617.246596 2785.44444,617.246596 L2785.44444,187.897126 C2785.44444,187.897126 2785.44444,186.898638 2785.44444,186.898638 C2785.44444,186.898638 2785.44444,185.900151 2784.47222,185.900151 C2784.47222,185.900151 2783.5,185.900151 2783.5,185.900151 C2783.5,185.900151 2782.52778,185.900151 2782.52778,185.900151 L2751.41667,184.901664 Z" id="Shape"></path>
        </g>
    </g>
</svg>