<?xml version="1.0" encoding="UTF-8"?>
<svg width="722px" height="800px" viewBox="0 0 722 800" version="1.1" xmlns="http://www.w3.org/2000/svg" xmlns:xlink="http://www.w3.org/1999/xlink">
    <title>voshod vv</title>
    <g id="Page-1-Copy-2" stroke="none" stroke-width="1" fill="none" fill-rule="evenodd">
        <g id="voshod-vv" transform="translate(-1069, 0)" fill="#D8D8D8" fill-rule="nonzero">
            <path d="M1157.86364,120 C1185.875,120 1205.19318,126.950355 1217.75,139.858156 C1229.34091,152.765957 1235.13636,175.602837 1235.13636,207.375887 L1235.13636,335.460993 C1235.13636,355.319149 1232.23864,370.212766 1225.47727,379.148936 C1219.68182,388.085106 1209.05682,393.049645 1196.5,393.049645 L1196.5,398.014184 C1224.51136,398.014184 1239,416.879433 1239,455.602837 L1239,591.631206 C1239,623.404255 1233.20455,645.248227 1220.64773,659.148936 C1208.09091,673.049645 1187.80682,680 1157.86364,680 L1070.93182,680 C1070.93182,680 1069.96591,680 1069.96591,680 C1069.96591,680 1069,680 1069,680 C1069,680 1069,680 1069,679.007092 C1069,679.007092 1069,678.014184 1069,678.014184 L1069,121.985816 C1069,121.985816 1069,120.992908 1069,120.992908 C1069,120.992908 1069,120 1069,120 C1069,120 1069,120 1069.96591,120 C1069.96591,120 1070.93182,120 1070.93182,120 L1157.86364,120 Z M1134.68182,183.546099 C1133.71591,183.546099 1133.71591,183.546099 1134.68182,183.546099 C1133.71591,183.546099 1133.71591,183.546099 1132.75,184.539007 C1132.75,184.539007 1132.75,184.539007 1132.75,185.531915 C1132.75,185.531915 1132.75,186.524823 1132.75,186.524823 L1132.75,361.276596 C1132.75,361.276596 1132.75,362.269504 1132.75,362.269504 C1132.75,362.269504 1132.75,363.262411 1132.75,363.262411 C1132.75,363.262411 1132.75,363.262411 1133.71591,364.255319 C1133.71591,364.255319 1134.68182,364.255319 1134.68182,364.255319 L1171.38636,364.255319 C1171.38636,364.255319 1172.35227,364.255319 1172.35227,364.255319 C1172.35227,364.255319 1173.31818,364.255319 1173.31818,363.262411 C1173.31818,363.262411 1173.31818,362.269504 1174.28409,362.269504 C1174.28409,362.269504 1174.28409,361.276596 1174.28409,361.276596 L1174.28409,185.531915 C1174.28409,185.531915 1174.28409,184.539007 1174.28409,184.539007 C1174.28409,184.539007 1174.28409,183.546099 1173.31818,183.546099 C1173.31818,183.546099 1172.35227,183.546099 1172.35227,183.546099 C1172.35227,183.546099 1171.38636,183.546099 1171.38636,183.546099 L1134.68182,183.546099 Z M1134.68182,427.801418 C1133.71591,427.801418 1133.71591,427.801418 1134.68182,427.801418 C1133.71591,427.801418 1133.71591,427.801418 1132.75,428.794326 C1132.75,428.794326 1132.75,428.794326 1132.75,429.787234 C1132.75,429.787234 1132.75,430.780142 1132.75,430.780142 L1132.75,613.475177 C1132.75,613.475177 1132.75,614.468085 1132.75,614.468085 C1132.75,614.468085 1132.75,615.460993 1132.75,615.460993 C1132.75,615.460993 1132.75,615.460993 1133.71591,615.460993 C1133.71591,615.460993 1134.68182,615.460993 1134.68182,615.460993 L1173.31818,615.460993 C1173.31818,615.460993 1174.28409,615.460993 1174.28409,615.460993 C1174.28409,615.460993 1175.25,615.460993 1175.25,615.460993 C1175.25,615.460993 1175.25,615.460993 1175.25,614.468085 C1175.25,614.468085 1175.25,613.475177 1175.25,613.475177 L1175.25,429.787234 C1175.25,429.787234 1175.25,428.794326 1175.25,428.794326 C1175.25,428.794326 1175.25,427.801418 1175.25,427.801418 C1175.25,427.801418 1175.25,427.801418 1174.28409,427.801418 C1173.31818,427.801418 1173.31818,427.801418 1173.31818,427.801418 L1134.68182,427.801418 Z" id="Shape-Copy"></path>
            <polygon id="Path" points="1450 0 1450 800 1400 800 1400 0"></polygon>
            <path d="M1705.57627,120 C1735.0678,120 1755.40678,126.950355 1768.62712,139.858156 C1780.83051,152.765957 1786.9322,175.602837 1786.9322,207.375887 L1786.9322,335.460993 C1786.9322,355.319149 1783.88136,370.212766 1776.76271,379.148936 C1770.66102,388.085106 1759.47458,393.049645 1746.25424,393.049645 L1746.25424,398.014184 C1775.74576,398.014184 1791,416.879433 1791,455.602837 L1791,591.631206 C1791,623.404255 1784.89831,645.248227 1771.67797,659.148936 C1758.45763,673.049645 1737.10169,680 1705.57627,680 L1614.05085,680 C1614.05085,680 1613.0339,680 1613.0339,680 C1613.0339,680 1612.01695,680 1612.01695,680 C1612.01695,680 1612.01695,680 1611,679.007092 C1611,679.007092 1611,678.014184 1611,678.014184 L1611,121.985816 C1611,121.985816 1611,120.992908 1611,120.992908 C1611,120.992908 1611,120 1612.01695,120 C1612.01695,120 1613.0339,120 1613.0339,120 C1613.0339,120 1614.05085,120 1614.05085,120 L1705.57627,120 Z M1681.16949,183.546099 C1680.15254,183.546099 1680.15254,183.546099 1681.16949,183.546099 C1680.15254,183.546099 1680.15254,183.546099 1679.13559,184.539007 C1679.13559,184.539007 1679.13559,184.539007 1679.13559,185.531915 C1679.13559,185.531915 1679.13559,186.524823 1679.13559,186.524823 L1679.13559,361.276596 C1679.13559,361.276596 1679.13559,362.269504 1679.13559,362.269504 C1679.13559,362.269504 1679.13559,363.262411 1679.13559,363.262411 C1679.13559,363.262411 1679.13559,363.262411 1680.15254,364.255319 C1680.15254,364.255319 1681.16949,364.255319 1681.16949,364.255319 L1719.81356,364.255319 C1719.81356,364.255319 1720.83051,364.255319 1720.83051,364.255319 C1720.83051,364.255319 1721.84746,364.255319 1721.84746,363.262411 C1721.84746,363.262411 1721.84746,362.269504 1721.84746,362.269504 C1721.84746,362.269504 1721.84746,361.276596 1721.84746,361.276596 L1721.84746,185.531915 C1721.84746,185.531915 1721.84746,184.539007 1721.84746,184.539007 C1721.84746,184.539007 1721.84746,183.546099 1721.84746,183.546099 C1721.84746,183.546099 1721.84746,183.546099 1720.83051,183.546099 C1720.83051,183.546099 1719.81356,183.546099 1719.81356,183.546099 L1681.16949,183.546099 Z M1681.16949,427.801418 C1680.15254,427.801418 1680.15254,427.801418 1681.16949,427.801418 C1680.15254,427.801418 1680.15254,427.801418 1679.13559,428.794326 C1679.13559,428.794326 1679.13559,428.794326 1679.13559,429.787234 C1679.13559,430.780142 1679.13559,430.780142 1679.13559,430.780142 L1679.13559,613.475177 C1679.13559,613.475177 1679.13559,614.468085 1679.13559,614.468085 C1679.13559,614.468085 1679.13559,615.460993 1679.13559,615.460993 C1679.13559,615.460993 1679.13559,615.460993 1680.15254,615.460993 C1680.15254,615.460993 1681.16949,615.460993 1681.16949,615.460993 L1721.84746,615.460993 C1721.84746,615.460993 1722.86441,615.460993 1722.86441,615.460993 C1722.86441,615.460993 1723.88136,615.460993 1723.88136,615.460993 C1723.88136,615.460993 1723.88136,615.460993 1724.89831,614.468085 C1724.89831,614.468085 1724.89831,613.475177 1724.89831,613.475177 L1724.89831,429.787234 C1724.89831,429.787234 1724.89831,428.794326 1724.89831,428.794326 C1724.89831,428.794326 1724.89831,427.801418 1723.88136,427.801418 C1723.88136,427.801418 1722.86441,427.801418 1722.86441,427.801418 C1722.86441,427.801418 1721.84746,427.801418 1721.84746,427.801418 L1681.16949,427.801418 Z" id="Shape"></path>
        </g>
    </g>
</svg>